# xmcd
#
# Track frame offsets: 
#        150
#        16816
#        29350
#        39492
#        51997
#        67911
#        82614
#        93642
#        107099
#        121213
#        136851
#        155339
#        166228
#        187066
#        200555
#
# Disc length: 2902 seconds
#
# Revision: 0
# Processed by: cddbd v1.5.2PL0 Copyright (c) Steve Scherf et al.
# Submitted via: ExactAudioCopy v1.0b4
#
DISCID=bc0b540f
DTITLE=Skyla Burrell Band - Blues Scars
DYEAR=2014
DGENRE=Blues, Chicago Blues
TTITLE0=Blues Scars
TTITLE1=Bluesin' For Your Lovin'
TTITLE2=Trouble
TTITLE3=Stuck In A Struggle
TTITLE4=Love Letter In Blue
TTITLE5=Livin' For The Blues
TTITLE6=Shut You Down
TTITLE7=Life Storms
TTITLE8=World Wide Blues
TTITLE9=Full Time Gambler
TTITLE10=Jace
TTITLE11=Juke Jointin' Tonight
TTITLE12=6 Mile Cemetery Road
TTITLE13=21St Century Blues
TTITLE14=Bad Business
EXTD=
EXTT0=
EXTT1=
EXTT2=
EXTT3=
EXTT4=
EXTT5=
EXTT6=
EXTT7=
EXTT8=
EXTT9=
EXTT10=
EXTT11=
EXTT12=
EXTT13=
EXTT14=
PLAYORDER=
